PathFileType	3	(X/Y/Z)	D:\minhoCalibration\240510\subject3_KPNP\preferred\preferred18.trc
DataRate	CameraRate	NumFrames	NumMarkers	Units	OrigDataRate	OrigDataStartFrame	OrigNumFrames
200.0	200.0	15	10	mm	200.0	202	116	
Frame#	Time	Left_Ankle_Outer1			Left_Ankle_Inner1			Left_Knee_Outer1			Left_Knee_Inner1			Left_Wrist1			Right_Wrist1			Right_Knee_Inner1			Right_Knee_Outer1			Right_Ankle_Inner1			Right_Ankle_Outer1			
		X1	Y1	Z1	X2	Y2	Z2	X3	Y3	Z3	X4	Y4	Z4	X5	Y5	Z5	X6	Y6	Z6	X7	Y7	Z7	X8	Y8	Z8	X9	Y9	Z9	X10	Y10	Z10	
202	1	-340.25632	120.07751	-518.90625	-396.5842	135.37971	-512.28009	-227.52606	534.97552	-413.43292	-317.10275	541.63055	-368.04373	-176.09779	925.55103	-585.51807	-492.68512	1080.6571	-455.62976	-366.68741	907.02612	-93.555786	-463.12436	961.84454	-103.616	-415.9057	715.52704	280.06705	-513.5058	757.06635	277.6449
203	1.005	-340.01819	118.40018	-520.08136	-396.35529	133.78218	-513.90369	-228.22876	533.95728	-414.49283	-317.92511	539.77112	-370.17328	-175.18382	926.00726	-583.33728	-496.10272	1075.2281	-456.19711	-369.68079	899.66943	-94.430008	-466.20505	954.20312	-104.28959	-424.17966	692.95068	269.64426	-521.99243	731.83081	266.9191
204	1.01	-339.87558	116.77655	-521.1922	-396.18619	132.07545	-515.68445	-229.03835	532.96948	-415.49835	-320.27682	538.89136	-372.89969	-174.52983	926.08392	-581.06262	-499.71817	1069.538	-456.55124	-372.80026	892.32874	-95.242638	-470.31088	946.63861	-104.88046	-431.94525	668.51349	258.08688	-530.36255	705.73389	254.77177
205	1.015	-339.59116	115.04265	-522.25562	-395.8345	130.22218	-517.2019	-230.10274	531.85907	-416.46451	-322.35541	537.58392	-375.20996	-173.78369	925.99774	-578.9176	-502.5304	1063.4447	-458.21765	-376.11768	884.99133	-96.105087	-474.03644	938.13538	-105.85726	-439.03296	644.45032	245.69958	-538.1358	679.62	241.2131
206	1.02	-339.39481	113.50794	-523.40601	-395.6709	128.47148	-518.85583	-231.06027	530.68994	-417.25348	-324.38391	535.88861	-377.68854	-172.82491	925.87628	-576.80762	-505.3996	1057.4794	-459.60214	-379.56116	877.466	-97.158195	-477.79211	928.86932	-107.36062	-452.91064	618.67694	238.10219	-546.55365	653.68481	226.69594
207	1.025	-339.18365	111.6814	-524.41315	-395.54288	126.6865	-520.46906	-232.42451	529.3855	-418.01834	-326.41922	534.30701	-380.0625	-172.11188	925.55481	-574.59967	-508.04126	1051.5787	-461.11072	-383.02823	869.69897	-98.4207	-482.36163	919.13947	-109.1229	-454.11249	595.98578	217.9247	-554.49585	627.37256	210.87532
208	1.03	-339.06384	110.00042	-525.43127	-395.41776	124.72369	-521.97137	-233.68401	528.10681	-418.65765	-328.57047	532.56317	-382.50555	-171.55861	924.89435	-572.4873	-510.36597	1045.7068	-462.8609	-386.58173	861.52783	-99.877769	-487.20413	908.9726	-111.39709	-461.65295	571.98676	202.56412	-562.46143	601.55347	193.39326
209	1.035	-338.83185	108.32504	-526.45288	-395.38168	122.87742	-523.45502	-234.91731	526.79114	-418.96497	-330.66852	530.96509	-384.78961	-170.89316	924.10022	-570.36005	-512.39404	1040.0089	-464.92984	-390.35709	852.84058	-101.68784	-491.78583	898.25488	-114.40382	-468.5257	548.52509	185.3754	-569.95581	576.24432	174.95024
210	1.04	-338.87204	106.63319	-527.31415	-395.40625	120.95744	-524.89441	-236.23462	525.52588	-419.47913	-332.80963	529.29987	-387.1767	-170.54295	923.23505	-568.20782	-514.16315	1034.5179	-467.03543	-394.26593	843.62012	-103.72199	-497.18036	887.5401	-117.28396	-476.20926	525.55756	168.00522	-576.16797	550.91602	155.64256
211	1.045	-338.92191	105.06805	-528.23242	-395.52698	119.18701	-526.28882	-238.09949	524.03131	-419.95865	-335.05133	527.68555	-389.28537	-170.08846	922.25366	-566.15771	-515.71326	1029.3241	-469.3736	-398.31989	833.81073	-106.06355	-502.08582	876.38818	-120.36343	-483.58838	501.59061	149.67947	-583.58905	527.08856	135.29297
212	1.05	-339.0578	103.24319	-528.9491	-395.66995	117.32018	-527.58575	-239.34645	522.82312	-420.06702	-337.23767	526.76862	-390.90576	-169.54323	921.22876	-564.03638	-516.94196	1024.6248	-471.89545	-402.49246	823.53961	-108.60819	-507.10608	865.47766	-124.36578	-490.46582	478.69144	130.25693	-590.23077	503.55316	113.71
213	1.055	-339.12	101.86713	-529.90619	-395.82486	115.50116	-528.86584	-240.97678	521.43268	-420.33679	-339.1748	524.92529	-393.83096	-169.28075	920.2168	-561.7558	-518.39832	1019.8185	-474.31717	-406.65887	812.91107	-111.5292	-512.42175	854.02246	-128.61378	-496.87589	456.63644	109.56908	-596.31799	480.48828	91.007156
214	1.06	-339.38281	100.22415	-530.63831	-396.05524	113.62759	-530.02966	-242.71463	520.12158	-420.74976	-341.30386	523.40411	-396.09592	-169.24573	919.11072	-559.32196	-519.53027	1015.3541	-476.80054	-411.00201	801.90259	-114.65788	-517.33405	842.43243	-133.31958	-502.86853	435.10037	88.259331	-602.53424	458.6936	67.283882
215	1.065	-339.71695	98.469238	-531.2337	-396.34244	111.88147	-531.19489	-244.3826	518.88708	-420.93213	-343.40015	522.31958	-398.04767	-169.01813	918.11523	-556.99426	-520.72888	1011.3858	-479.40814	-415.4657	790.56464	-117.95705	-522.47217	830.2547	-138.18964	-509.20474	413.71997	66.066116	-607.74341	437.54749	43.098518
216	1.07	-339.7041	97.196999	-532.10345	-396.64478	110.02338	-532.30511	-245.91054	517.67291	-421.08759	-345.35599	520.66559	-400.26001	-169.36017	917.06873	-554.32709	-522.19727	1007.9294	-482.15802	-420.08649	778.93134	-121.54606	-527.1145	818.6712	-142.78244	-514.39777	393.01288	42.53281	-612.60724	416.98251	18.022964
